<?xml version="1.0" encoding="utf-8"?>
<!-- Generator: Adobe Illustrator 16.0.4, SVG Export Plug-In . SVG Version: 6.00 Build 0)  -->
<!DOCTYPE svg PUBLIC "-//W3C//DTD SVG 1.1//EN" "http://www.w3.org/Graphics/SVG/1.1/DTD/svg11.dtd">
<svg version="1.1" id="Layer_1" xmlns="http://www.w3.org/2000/svg" xmlns:xlink="http://www.w3.org/1999/xlink" x="0px" y="0px"
	 width="26px" height="26px" viewBox="0 0 26 26" enable-background="new 0 0 26 26" xml:space="preserve">
<title>Icon-LinkedIn</title>
<desc>Created with Sketch.</desc>
<g id="Page-1">
	<g id="evil-Icons" transform="translate(-4.000000, -581.000000)">
		<g id="Icon-LinkedIn" transform="translate(4.000000, 581.000000)">
			<path id="Fill-3" fill="#2D2D2D" d="M24.076,0H1.918C0.86,0,0,0.839,0,1.875v22.249C0,25.159,0.86,26,1.918,26h22.158
				c1.06,0,1.923-0.841,1.923-1.876V1.875C25.999,0.839,25.136,0,24.076,0L24.076,0z M4,10h4v12H4V10z M6.001,8.4
				C4.672,8.4,3.6,7.325,3.6,6s1.072-2.4,2.401-2.4C7.325,3.6,8.4,4.675,8.4,6S7.325,8.4,6.001,8.4L6.001,8.4z M22,22h-4v-6
				c0-1.625-0.438-3.169-2-3.169s-2,1.567-2,3.187V22h-4V10h4v1.443h0.2c0.514-0.975,1.8-1.804,3.329-1.804
				C21.219,9.639,22,12.063,22,15V22L22,22z"/>
		</g>
	</g>
</g>
</svg>
