<?xml version="1.0" encoding="utf-8"?>
<!-- Generator: Adobe Illustrator 16.0.4, SVG Export Plug-In . SVG Version: 6.00 Build 0)  -->
<!DOCTYPE svg PUBLIC "-//W3C//DTD SVG 1.1//EN" "http://www.w3.org/Graphics/SVG/1.1/DTD/svg11.dtd">
<svg version="1.1" id="Layer_1" xmlns="http://www.w3.org/2000/svg" xmlns:xlink="http://www.w3.org/1999/xlink" x="0px" y="0px"
	 width="30px" height="30px" viewBox="0 0 30 30" enable-background="new 0 0 30 30" xml:space="preserve">
<title>Icon-GitHub</title>
<desc>Created with Sketch.</desc>
<g id="Page-1">
	<g id="evil-Icons" transform="translate(-4.000000, -627.000000)">
		<g id="Icon-GitHub" transform="translate(4.000000, 627.000000)">
			<path id="Fill-123" fill="#2D2D2D" d="M14.999,0C6.716,0,0,6.716,0,15.001c0,6.627,4.298,12.249,10.259,14.231
				c0.75,0.139,1.023-0.324,1.023-0.723c0-0.355-0.012-1.299-0.02-2.551c-4.172,0.907-5.053-2.011-5.053-2.011
				c-0.682-1.732-1.665-2.194-1.665-2.194c-1.362-0.93,0.103-0.912,0.103-0.912c1.505,0.106,2.298,1.547,2.298,1.547
				c1.338,2.293,3.51,1.631,4.365,1.246c0.136-0.97,0.524-1.631,0.952-2.006c-3.331-0.378-6.832-1.665-6.832-7.413
				c0-1.638,0.584-2.977,1.544-4.025c-0.155-0.38-0.669-1.905,0.147-3.97c0,0,1.259-0.403,4.125,1.538
				c1.196-0.333,2.479-0.499,3.755-0.505c1.274,0.006,2.558,0.172,3.755,0.505c2.864-1.941,4.121-1.538,4.121-1.538
				c0.818,2.065,0.303,3.59,0.148,3.97c0.963,1.048,1.543,2.387,1.543,4.025c0,5.763-3.508,7.03-6.85,7.402
				c0.539,0.463,1.02,1.378,1.02,2.776c0,2.006-0.02,3.625-0.02,4.115c0,0.401,0.271,0.868,1.032,0.723
				C25.706,27.244,30,21.626,30,15.001C30,6.716,23.283,0,14.999,0"/>
		</g>
	</g>
</g>
</svg>
