<?xml version="1.0" encoding="utf-8"?>
<!-- Generator: Adobe Illustrator 16.0.4, SVG Export Plug-In . SVG Version: 6.00 Build 0)  -->
<!DOCTYPE svg PUBLIC "-//W3C//DTD SVG 1.1//EN" "http://www.w3.org/Graphics/SVG/1.1/DTD/svg11.dtd">
<svg version="1.1" id="Layer_1" xmlns="http://www.w3.org/2000/svg" xmlns:xlink="http://www.w3.org/1999/xlink" x="0px" y="0px"
	 width="27px" height="32px" viewBox="0 0 27 32" enable-background="new 0 0 27 32" xml:space="preserve">
<title>resume</title>
<desc>Created with Sketch.</desc>
<g id="Page-1">
	<g id="resume">
		<path id="Shape" fill="#2D2D2D" d="M25.602,8.301c0.162,0.163,0.325,0.372,0.488,0.628h-8.232V0.698
			c0.256,0.163,0.466,0.325,0.629,0.488L25.602,8.301z M17.3,11.161h9.487v18.417c0,0.465-0.162,0.859-0.488,1.186
			c-0.326,0.325-0.721,0.488-1.186,0.488H1.674c-0.465,0-0.86-0.163-1.186-0.488C0.163,30.438,0,30.043,0,29.578V1.674
			c0-0.465,0.163-0.86,0.488-1.186S1.209,0,1.674,0h13.952v9.487c0,0.465,0.163,0.86,0.488,1.186
			C16.439,10.999,16.835,11.161,17.3,11.161z M20.09,23.997v-1.116c0-0.163-0.052-0.297-0.156-0.401
			c-0.105-0.104-0.238-0.157-0.401-0.157H7.255c-0.163,0-0.296,0.053-0.401,0.157c-0.104,0.104-0.157,0.238-0.157,0.401v1.116
			c0,0.163,0.052,0.296,0.157,0.401c0.105,0.104,0.239,0.156,0.401,0.156h12.277c0.163,0,0.296-0.053,0.401-0.156
			C20.038,24.293,20.09,24.16,20.09,23.997z M20.09,19.532v-1.116c0-0.162-0.052-0.297-0.156-0.4
			c-0.105-0.105-0.238-0.158-0.401-0.158H7.255c-0.163,0-0.296,0.053-0.401,0.158c-0.104,0.104-0.157,0.238-0.157,0.4v1.116
			c0,0.163,0.052,0.296,0.157,0.401c0.105,0.104,0.239,0.156,0.401,0.156h12.277c0.163,0,0.296-0.052,0.401-0.156
			C20.038,19.828,20.09,19.695,20.09,19.532z M20.09,15.068v-1.116c0-0.163-0.052-0.296-0.156-0.401
			c-0.105-0.105-0.238-0.157-0.401-0.157H7.255c-0.163,0-0.296,0.052-0.401,0.157c-0.104,0.104-0.157,0.238-0.157,0.401v1.116
			c0,0.163,0.052,0.296,0.157,0.401c0.105,0.104,0.239,0.157,0.401,0.157h12.277c0.163,0,0.296-0.053,0.401-0.157
			C20.038,15.364,20.09,15.23,20.09,15.068z"/>
	</g>
</g>
</svg>
