<?xml version="1.0" encoding="utf-8"?>
<!-- Generator: Adobe Illustrator 16.0.4, SVG Export Plug-In . SVG Version: 6.00 Build 0)  -->
<!DOCTYPE svg PUBLIC "-//W3C//DTD SVG 1.1//EN" "http://www.w3.org/Graphics/SVG/1.1/DTD/svg11.dtd">
<svg version="1.1" id="Layer_1" xmlns="http://www.w3.org/2000/svg" xmlns:xlink="http://www.w3.org/1999/xlink" x="0px" y="0px"
	 width="39px" height="31px" viewBox="0 0 39 31" enable-background="new 0 0 39 31" xml:space="preserve">
<title>envelope</title>
<desc>Created with Sketch.</desc>
<g id="Page-1">
	<g id="envelope">
		<path id="Shape" fill="#2D2D2D" d="M38.273,9.697v16.958c0,0.94-0.334,1.745-1.004,2.414c-0.669,0.67-1.473,1.004-2.413,1.004
			H3.417c-0.94,0-1.745-0.334-2.414-1.004C0.334,28.399,0,27.595,0,26.654V9.697c0.626,0.698,1.346,1.317,2.157,1.858
			c5.154,3.503,8.693,5.959,10.615,7.369c0.812,0.598,1.47,1.064,1.976,1.398c0.506,0.334,1.178,0.676,2.019,1.025
			c0.84,0.349,1.623,0.523,2.35,0.523h0.042c0.726,0,1.51-0.175,2.35-0.523c0.84-0.35,1.513-0.691,2.018-1.025
			c0.506-0.334,1.164-0.801,1.977-1.398c2.42-1.752,5.966-4.208,10.636-7.369C36.949,11,37.662,10.38,38.273,9.697z M38.273,3.417
			c0,1.125-0.349,2.2-1.047,3.225c-0.697,1.025-1.565,1.9-2.605,2.627c-5.354,3.716-8.686,6.03-9.995,6.941
			c-0.143,0.1-0.444,0.316-0.907,0.651s-0.848,0.604-1.154,0.812c-0.306,0.207-0.676,0.438-1.11,0.694
			c-0.435,0.256-0.844,0.448-1.228,0.577c-0.385,0.127-0.741,0.191-1.068,0.191h-0.042c-0.328,0-0.684-0.064-1.068-0.191
			c-0.385-0.129-0.794-0.321-1.229-0.577c-0.434-0.257-0.804-0.487-1.11-0.694s-0.69-0.477-1.153-0.812s-0.766-0.552-0.908-0.651
			c-1.296-0.912-3.161-2.211-5.596-3.898C5.617,10.625,4.158,9.611,3.674,9.27c-0.883-0.598-1.716-1.42-2.499-2.467
			C0.392,5.756,0,4.784,0,3.887C0,2.776,0.295,1.851,0.886,1.11C1.477,0.37,2.321,0,3.417,0h31.439c0.925,0,1.727,0.334,2.403,1.004
			C37.936,1.673,38.273,2.478,38.273,3.417z"/>
	</g>
</g>
</svg>
